<svg xmlns="http://www.w3.org/2000/svg" xmlns:xlink="http://www.w3.org/1999/xlink" viewBox="0 0 688.06 257.95"><defs><style>.cls-1,.cls-2{fill:#f98a10;}.cls-2{font-size:200.77px;font-family:Onyx;}.cls-3{fill:url(#Dégradé_sans_nom_75);}</style><linearGradient id="Dégradé_sans_nom_75" x1="122.45" y1="128.97" x2="586.34" y2="128.97" gradientUnits="userSpaceOnUse"><stop offset="0" stop-color="#fbb03b" stop-opacity="0"/><stop offset="0.1" stop-color="#cd9234"/><stop offset="0.5"/><stop offset="0.9" stop-color="#f7931e"/><stop offset="1" stop-opacity="0"/></linearGradient></defs><title>Fichier 2</title><g id="Calque_2" data-name="Calque 2"><g id="Calque_1-2" data-name="Calque 1"><path class="cls-1" d="M7.55,188.63V46.09H1.08C.36,45.63,0,45.21,0,44.81s.36-.71,1.08-1.17H30q13.34,0,21.81,9.21t8.48,25.88a48.25,48.25,0,0,1-2.89,17.6,29.88,29.88,0,0,1-9,12.4q-3.82,3.13-11.56,6,8,2.94,11.85,6a32.42,32.42,0,0,1,9.21,12.11q3.14,7.11,3.13,17.5a58.28,58.28,0,0,1-4.6,23.82,27.92,27.92,0,0,1-10.3,12.1A29.79,29.79,0,0,1,29,191.08H1.08Q0,190.42,0,189.85c0-.37.36-.78,1.08-1.22ZM27.65,46.19v67.34h5.23c2.37,0,4.14-.58,5.29-1.76s1.73-3.13,1.73-5.87V54.8c0-3.33-.6-5.6-1.78-6.8s-3.49-1.81-6.92-1.81Zm0,69.89v72.45h3.16a9.25,9.25,0,0,0,6.62-2.35,8.39,8.39,0,0,0,2.47-6.38v-57q0-3.63-1.43-5.2a5.85,5.85,0,0,0-4.5-1.57Z"/><path class="cls-1" d="M71.37,88.34H67.66c-.6-.38-.9-.75-.9-1.13a1.78,1.78,0,0,1,.89-1.32H88.92v98.42a2.37,2.37,0,0,0,.59,1.77,2.32,2.32,0,0,0,1.69.59q2.19,0,4.38-3.14a20.35,20.35,0,0,0,3.43-12V88.34H95.19a.93.93,0,0,1-.74-.28,1.47,1.47,0,0,1-.24-1,1.49,1.49,0,0,1,.24-.89.85.85,0,0,1,.73-.33h21.38V188.63h3.33a1.15,1.15,0,0,1,1.18,1.22,1.18,1.18,0,0,1-.34.9,1.17,1.17,0,0,1-.84.33H99v-7.85q-3.15,5-6.44,7a14.75,14.75,0,0,1-7.82,2q-6.6,0-10-3.48t-3.39-9.37Z"/><path class="cls-1" d="M129.23,88.34H124.7c-.65-.38-1-.78-1-1.23s.32-.78,1-1.22H151a1.05,1.05,0,0,1,.83.38,1.22,1.22,0,0,1,.35.84,1.19,1.19,0,0,1-.35.9,1.15,1.15,0,0,1-.83.33h-4.51l8.82,75.39,8.43-59.21a39.72,39.72,0,0,0,.49-6c0-3.6-.47-6.08-1.42-7.46a5.83,5.83,0,0,0-4.16-2.45l-1.38-.39a1.63,1.63,0,0,1-.29-1,1.82,1.82,0,0,1,.24-1,.85.85,0,0,1,.74-.34h14.8a1.16,1.16,0,0,1,.93.38,1.33,1.33,0,0,1,.35.94,1.13,1.13,0,0,1-.25.75,1.59,1.59,0,0,1-1,.38,4.19,4.19,0,0,0-2.35,2.07,32.68,32.68,0,0,0-3.81,11.75L152,205.29q-1.57,11.18-6.67,16.72t-10.39,5.53a9.7,9.7,0,0,1-7.45-3.67,14.12,14.12,0,0,1-3.23-9.66q0-5.1,2.5-7.89a7.61,7.61,0,0,1,5.83-2.79,7.52,7.52,0,0,1,5.64,2.55,8.8,8.8,0,0,1,2.4,6.27,10.14,10.14,0,0,1-5.1,9c-.92.59-1.37,1.18-1.37,1.76a1.29,1.29,0,0,0,.54,1,2.46,2.46,0,0,0,1.61.44q3.63,0,7.06-4,4.6-5.49,6.57-17.54l2.06-12H141.36Z"/><text class="cls-2" transform="translate(433.96 194.03)">Deals</text><path class="cls-3" d="M586.34,0H391.9V.65H365.72V179.91q-15.27-25.83-16.4-27.71L259.22.65H208V229h-85.5V258H245.27V69.45q4.71,8.1,7,11.87l7.35,12.26L357.24,258h45.05V27.78H586.34Z"/></g></g></svg>